<?xml version="1.0" encoding="utf-8"?>
<svg viewBox="387.045 257.424 225.905 261.076" xmlns="http://www.w3.org/2000/svg">
  <path fill="#b91c1c"
    d="M4905 7424 c-394 -42 -724 -259 -903 -594 -204 -381 -168 -872 89 -1212 26 -34 215 -229 418 -433 l371 -370 0 122 c0 242 -48 380 -198 563 -96 116 -133 218 -153 420 -13 132 -8 277 22 625 22 258 32 298 82 325 24 13 30 13 54 0 15 -8 36 -30 46 -48 18 -30 18 -42 8 -176 -14 -185 -14 -629 0 -695 14 -68 38 -96 72 -87 55 14 59 33 80 496 21 460 24 479 80 510 24 13 30 13 55 0 55 -31 58 -50 79 -510 21 -463 25 -482 80 -496 34 -9 58 19 72 87 14 66 14 510 0 695 -10 134 -10 146 8 176 10 18 31 40 46 48 24 13 30 13 55 0 49 -27 59 -67 81 -325 30 -348 35 -493 22 -625 -20 -202 -57 -304 -153 -420 -150 -183 -198 -321 -198 -563 l0 -122 371 370 c203 204 392 399 418 433 294 389 294 956 0 1353 -60 81 -185 202 -265 256 -123 84 -282 150 -421 177 -85 16 -254 26 -318 20z"
    transform="matrix(0.1, 0, 0, -0.1, 0, 1000)" />
</svg>